<svg width="56" height="57" viewBox="0 0 56 57" fill="none" xmlns="http://www.w3.org/2000/svg">
<path d="M52.3992 0.946533C53.2608 0.946533 53.9948 1.26565 54.6011 1.84006C55.2074 2.4783 55.4946 3.18036 55.4946 4.07389V53.3456C55.4946 54.2073 55.1755 54.9412 54.6011 55.5476C54.3106 55.8426 53.9622 56.0743 53.5777 56.2281C53.1933 56.3819 52.7811 56.4544 52.3673 56.4411H38.358V35.0602H45.5382L46.5274 26.6036H38.358V21.1786C38.358 19.9021 38.6771 18.8809 39.2516 18.2108C39.826 17.5726 40.8471 17.1896 42.4427 17.1896H46.8146V9.69036C44.8999 9.49889 42.7619 9.37124 40.4004 9.37124C37.1773 9.37124 34.5605 10.3286 32.582 12.2433C30.6035 14.158 29.6142 16.8386 29.6142 20.317V26.6036H22.466V35.0602H29.6142V56.4411H3.12744C2.23391 56.4411 1.53185 56.122 0.893613 55.5476C0.598568 55.257 0.366863 54.9086 0.213084 54.5242C0.0593052 54.1397 -0.0132171 53.7276 8.31768e-05 53.3137V4.07389C8.31768e-05 3.21227 0.319201 2.4783 0.893613 1.87197C1.18412 1.57693 1.53257 1.34522 1.91702 1.19145C2.30147 1.03767 2.71359 0.965145 3.12744 0.978445H52.3992V0.946533Z" fill="#B77729"/>
</svg>
