<svg width="58" height="58" viewBox="0 0 58 58" fill="none" xmlns="http://www.w3.org/2000/svg">
<g clip-path="url(#clip0_56_230)">
<path d="M28.5455 5.04197C36.0128 5.04197 36.9063 5.07388 39.8422 5.20153C42.5866 5.32917 44.0546 5.77594 45.0438 6.15888C46.3522 6.70138 47.2777 7.27579 48.2669 8.26506C49.2243 9.22241 49.8625 10.1798 50.3412 11.4562C50.7241 12.4774 51.2028 13.9454 51.2985 16.6898C51.4581 19.6256 51.49 20.5192 51.49 27.9865C51.49 35.4539 51.4581 36.3474 51.3305 39.2833C51.316 41.0596 50.992 42.8198 50.3731 44.4849C49.8306 45.7933 49.2562 46.7187 48.2669 47.708C47.3096 48.6654 46.3522 49.3036 45.0438 49.8142C44.0546 50.1971 42.5866 50.6439 39.8422 50.7715C36.9063 50.8992 36.0128 50.9311 28.5455 50.9311C21.0781 50.9311 20.1846 50.9311 17.2168 50.7715C15.4512 50.7534 13.7021 50.4295 12.0471 49.8142C10.7068 49.3036 9.81325 48.6973 8.82399 47.708C7.83472 46.7506 7.2284 45.7933 6.71781 44.5168C6.10023 42.8403 5.77637 41.0699 5.76046 39.2833C5.63281 36.3474 5.6009 35.4539 5.6009 27.9865C5.6009 20.5192 5.6009 19.6256 5.76046 16.6898C5.8881 13.9454 6.33487 12.4774 6.71781 11.4881C7.2284 10.1798 7.83472 9.25432 8.82399 8.26506C9.78134 7.3077 10.7387 6.66947 12.0152 6.19079C13.0363 5.80785 14.5043 5.32917 17.2168 5.23344C20.1846 5.07388 21.0462 5.04197 28.5455 5.04197ZM28.5455 -9.03718e-05C20.9505 -9.03718e-05 19.9931 0.0318214 16.9934 0.159468C14.0256 0.287116 11.9833 0.797704 10.1962 1.43594C8.37722 2.16991 6.81354 3.15917 5.24987 4.69094C3.75001 6.25462 2.79266 7.81829 2.02678 9.63726C1.32472 11.4243 0.846044 13.4667 0.750308 16.4345C0.558838 19.4661 0.558838 20.4234 0.558838 27.9865C0.558838 35.5496 0.59075 36.5389 0.718397 39.5067C0.846044 42.5064 1.35663 44.5168 1.99487 46.3039C2.72884 48.1548 3.7181 49.7184 5.24987 51.2821C6.81354 52.8139 8.37722 53.7712 10.1962 54.5052C11.9833 55.2073 14.0256 55.6859 16.9934 55.7817C19.9931 55.9412 20.9505 55.9732 28.5455 55.9732C36.1724 55.9732 37.0978 55.9412 40.0975 55.8136C43.0653 55.6859 45.1077 55.1754 46.8947 54.5052C48.7592 53.8052 50.4476 52.705 51.841 51.2821C53.4047 49.7184 54.3621 48.1548 55.0641 46.3039C55.7662 44.5487 56.2449 42.5064 56.3725 39.5067C56.5002 36.5389 56.5321 35.5815 56.5321 27.9865C56.5321 20.3596 56.5321 19.4342 56.3725 16.4345C56.3322 14.1131 55.9007 11.8151 55.096 9.63726C54.3867 7.76983 53.2755 6.08119 51.841 4.69094C50.4424 3.27434 48.7555 2.17512 46.8947 1.46785C44.7194 0.64995 42.421 0.207529 40.0975 0.159468C36.2489 0.00525356 32.3969 -0.047951 28.5455 -9.03718e-05Z" fill="#B77729"/>
<path d="M28.6413 12.7647C24.8327 12.7647 21.1801 14.2776 18.487 16.9707C15.794 19.6638 14.281 23.3164 14.281 27.125C14.281 30.9336 15.794 34.5862 18.487 37.2792C21.1801 39.9723 24.8327 41.4853 28.6413 41.4853C32.4499 41.4853 36.1025 39.9723 38.7956 37.2792C41.4886 34.5862 43.0016 30.9336 43.0016 27.125C43.0016 23.3164 41.4886 19.6638 38.7956 16.9707C36.1025 14.2776 32.4499 12.7647 28.6413 12.7647ZM28.6413 36.4751C27.4155 36.4751 26.2017 36.2337 25.0693 35.7646C23.9368 35.2955 22.9078 34.608 22.041 33.7412C21.1743 32.8744 20.4867 31.8455 20.0176 30.713C19.5485 29.5805 19.3071 28.3667 19.3071 27.1409C19.3071 25.9152 19.5485 24.7014 20.0176 23.5689C20.4867 22.4364 21.1743 21.4074 22.041 20.5407C22.9078 19.6739 23.9368 18.9864 25.0693 18.5173C26.2017 18.0482 27.4155 17.8067 28.6413 17.8067C31.1169 17.8067 33.4911 18.7902 35.2416 20.5407C36.9921 22.2912 37.9755 24.6654 37.9755 27.1409C37.9755 29.6165 36.9921 31.9907 35.2416 33.7412C33.4911 35.4917 31.1169 36.4751 28.6413 36.4751ZM43.4164 15.9559C44.3051 15.9559 45.1574 15.6028 45.7858 14.9745C46.4142 14.3461 46.7672 13.4938 46.7672 12.6051C46.7672 11.7165 46.4142 10.8642 45.7858 10.2358C45.1574 9.60742 44.3051 9.25439 43.4164 9.25439C42.5278 9.25439 41.6755 9.60742 41.0471 10.2358C40.4187 10.8642 40.0657 11.7165 40.0657 12.6051C40.0657 13.4938 40.4187 14.3461 41.0471 14.9745C41.6755 15.6028 42.5278 15.9559 43.4164 15.9559Z" fill="#B77729"/>
</g>
<defs>
<clipPath id="clip0_56_230">
<rect width="57.4412" height="57.4412" fill="white" transform="translate(0.558838)"/>
</clipPath>
</defs>
</svg>
