<svg width="19" height="18" viewBox="0 0 19 18" fill="none" xmlns="http://www.w3.org/2000/svg">
<path fill-rule="evenodd" clip-rule="evenodd" d="M4.16702 0.299988H0.906478L0.111979 11.9C0.0638896 12.5838 0.161371 13.2699 0.398369 13.9156C0.635367 14.5614 1.00682 15.153 1.48966 15.6538C1.9725 16.1545 2.55641 16.5538 3.20514 16.8266C3.85387 17.0995 4.55355 17.2402 5.26074 17.24H12.8756C13.5818 17.2401 14.2806 17.0997 14.9286 16.8274C15.5766 16.5552 16.16 16.1569 16.6426 15.6572C17.1253 15.1575 17.497 14.5671 17.7347 13.9225C17.9724 13.278 18.0709 12.593 18.0243 11.91L17.2195 0.299988H4.16702ZM4.16702 1.29999H1.87639L1.1438 11.97C1.10563 12.5167 1.18378 13.0652 1.37338 13.5814C1.56299 14.0976 1.86001 14.5706 2.24603 14.971C2.63205 15.3713 3.09883 15.6906 3.61742 15.9089C4.13601 16.1272 4.69535 16.2399 5.26074 16.24H12.8756C13.4418 16.2412 14.0023 16.1295 14.5221 15.9119C15.0419 15.6942 15.5099 15.3751 15.8971 14.9746C16.2842 14.5741 16.5821 14.1007 16.7724 13.5838C16.9626 13.0669 17.041 12.5175 17.0028 11.97L16.2599 1.29999H13.9693V1.92999C13.9693 2.55377 13.8425 3.17144 13.5962 3.74773C13.3499 4.32403 12.9889 4.84767 12.5338 5.28874C12.0787 5.72982 11.5384 6.07971 10.9437 6.31842C10.3491 6.55713 9.71177 6.67999 9.06815 6.67999C8.42452 6.67999 7.7872 6.55713 7.19257 6.31842C6.59793 6.07971 6.05764 5.72982 5.60253 5.28874C5.14741 4.84767 4.7864 4.32403 4.54009 3.74773C4.29379 3.17144 4.16702 2.55377 4.16702 1.92999V1.29999ZM12.9375 1.29999H5.19884V1.92999C5.19884 2.92455 5.60649 3.87838 6.33213 4.58164C7.05777 5.2849 8.04194 5.67999 9.06815 5.67999C10.0944 5.67999 11.0785 5.2849 11.8042 4.58164C12.5298 3.87838 12.9375 2.92455 12.9375 1.92999V1.29999Z" fill="black"/>
</svg>
