<svg width="18" height="18" viewBox="0 0 18 18" fill="none" xmlns="http://www.w3.org/2000/svg">
<path fill-rule="evenodd" clip-rule="evenodd" d="M5.67499 4C5.67499 3.20435 6.00112 2.44129 6.58163 1.87868C7.16214 1.31607 7.94948 1 8.77044 1C9.59141 1 10.3787 1.31607 10.9593 1.87868C11.5398 2.44129 11.8659 3.20435 11.8659 4C11.8659 4.79565 11.5398 5.55871 10.9593 6.12132C10.3787 6.68393 9.59141 7 8.77044 7C7.94948 7 7.16214 6.68393 6.58163 6.12132C6.00112 5.55871 5.67499 4.79565 5.67499 4ZM8.77044 0C7.67582 0 6.62604 0.421427 5.85202 1.17157C5.07801 1.92172 4.64318 2.93913 4.64318 4C4.64318 5.06087 5.07801 6.07828 5.85202 6.82843C6.62604 7.57857 7.67582 8 8.77044 8C9.86506 8 10.9148 7.57857 11.6889 6.82843C12.4629 6.07828 12.8977 5.06087 12.8977 4C12.8977 2.93913 12.4629 1.92172 11.6889 1.17157C10.9148 0.421427 9.86506 0 8.77044 0ZM14.528 12.15C15.6836 12.97 16.4162 14.39 16.4987 17H1.04213C1.12468 14.4 1.85727 12.97 3.00259 12.15C4.29236 11.25 6.1909 11 8.77044 11C11.35 11 13.2588 11.26 14.528 12.15ZM8.77044 10C6.1909 10 3.97249 10.24 2.40413 11.35C0.794499 12.48 0 14.43 0 17.5V18H17.5409V17.5C17.5409 14.43 16.7464 12.48 15.1368 11.35C13.5684 10.25 11.35 10 8.77044 10Z" fill="black"/>
</svg>
